<?xml version="1.0" standalone="no"?>
<!DOCTYPE svg PUBLIC "-//W3C//DTD SVG 20010904//EN"
 "http://www.w3.org/TR/2001/REC-SVG-20010904/DTD/svg10.dtd">
<svg version="1.0" xmlns="http://www.w3.org/2000/svg"
 width="1250.000000pt" height="1250.000000pt" viewBox="0 0 1250.000000 1250.000000"
 preserveAspectRatio="xMidYMid meet">
<metadata>
Created by potrace 1.14, written by Peter Selinger 2001-2017
</metadata>
<g transform="translate(0.000000,1250.000000) scale(0.100000,-0.100000)"
fill="#000000" stroke="none">
<path d="M0 6250 l0 -6250 6250 0 6250 0 0 728 0 727 -48 15 c-57 18 -72 44
-77 134 -4 70 -30 133 -64 154 -12 7 -21 17 -21 23 0 25 -66 100 -104 118 -40
20 -120 37 -221 48 -42 5 -56 12 -87 46 -21 22 -38 44 -38 49 0 4 -14 8 -30 8
-17 0 -33 6 -36 14 -3 8 -20 14 -42 14 -73 0 -177 15 -200 30 -15 10 -22 23
-20 41 3 22 -1 26 -23 27 -36 1 -99 53 -99 82 0 29 -25 68 -68 106 -18 16 -40
42 -48 57 -8 16 -29 36 -47 45 -17 9 -43 27 -57 39 -23 22 -31 23 -118 18 -76
-5 -100 -10 -128 -29 -19 -13 -41 -24 -48 -24 -14 0 -36 69 -36 112 0 18 -16
33 -70 67 -38 24 -72 52 -75 61 -6 18 -137 80 -170 80 -24 0 -101 77 -136 135
-13 22 -43 61 -67 87 -55 59 -114 76 -206 59 -91 -17 -86 -21 -86 67 0 60 -5
85 -21 112 -48 80 -108 121 -224 155 -133 38 -138 41 -169 97 -32 57 -200 235
-281 298 -27 21 -82 56 -121 77 -41 22 -107 72 -154 116 -88 83 -192 165 -305
239 -38 25 -113 83 -165 128 -181 157 -470 363 -604 432 -33 16 -102 41 -154
54 -52 13 -100 28 -107 34 -26 21 -155 80 -211 94 -140 38 -369 29 -524 -20
-41 -13 -75 -22 -77 -20 -2 1 15 43 37 92 22 49 67 173 100 277 34 103 66 187
71 187 5 0 27 -9 49 -20 58 -29 75 -26 104 22 25 40 221 373 257 435 9 15 108
181 221 368 112 187 300 500 417 695 117 195 237 393 267 440 29 47 54 95 54
107 0 17 -28 40 -127 106 -406 267 -433 287 -413 313 10 11 9 14 -3 14 -9 0
-24 -11 -35 -25 -37 -46 -55 -46 -186 7 -74 31 -128 47 -142 44 -12 -3 -39 1
-59 10 -22 9 -49 13 -66 9 -52 -12 -186 -184 -366 -470 -66 -105 -144 -226
-174 -270 -53 -79 -54 -81 -80 -68 -40 20 -81 0 -128 -61 -67 -86 -114 -226
-127 -373 l-7 -73 -65 0 c-64 0 -66 -1 -107 -43 -24 -26 -61 -85 -89 -142 -66
-138 -159 -251 -198 -239 -14 4 -95 -37 -138 -71 -8 -7 -44 -28 -80 -48 -36
-19 -89 -49 -118 -66 -29 -17 -55 -31 -57 -31 -3 0 -28 -11 -57 -25 -28 -14
-53 -24 -54 -22 -7 7 -34 134 -44 207 -10 74 -69 274 -133 450 -11 30 -64 144
-118 254 -55 109 -99 208 -99 220 0 38 -57 185 -99 255 -42 72 -108 141 -166
177 -19 11 -63 55 -96 97 -55 67 -65 75 -89 71 -38 -8 -125 47 -139 88 -12 34
-14 88 -5 112 5 14 10 13 36 -5 47 -34 339 -180 378 -190 20 -4 54 -4 82 2 42
9 56 20 110 81 63 71 105 98 153 98 41 0 68 35 63 83 -3 23 -8 50 -12 60 -7
15 -2 17 47 17 66 0 80 13 83 78 2 26 8 65 14 88 l12 40 57 -4 c53 -4 61 -2
91 25 30 26 34 37 38 90 3 37 -2 86 -12 125 -21 86 -21 149 2 179 10 13 21 31
24 40 4 9 37 32 75 51 38 19 69 42 71 52 6 28 104 195 156 266 44 60 65 93
107 173 9 17 18 25 20 18 7 -21 39 -1 39 24 0 13 5 27 10 30 6 3 10 14 10 24
0 13 7 17 30 16 30 -2 43 18 18 28 -9 4 -9 8 -3 14 6 4 15 17 22 28 6 11 16
19 21 18 5 -1 12 12 16 29 5 24 0 41 -20 71 -24 36 -25 46 -19 101 6 56 4 64
-19 90 -28 33 -38 70 -23 85 8 8 6 11 -6 11 -13 0 -17 9 -17 37 0 30 -7 44
-40 74 -41 38 -49 64 -30 100 15 26 3 83 -24 113 -11 14 -39 33 -62 43 -39 17
-117 93 -96 93 6 0 6 9 -1 25 -7 14 -15 25 -19 25 -5 0 -8 18 -8 40 0 29 -4
40 -15 40 -8 0 -15 7 -15 15 0 8 -4 15 -9 15 -5 0 -17 17 -26 37 -23 49 -95
119 -105 102 -5 -7 -12 -2 -21 17 -8 16 -31 38 -51 49 -20 11 -48 35 -63 53
-19 22 -35 32 -55 32 -15 0 -33 7 -40 15 -7 8 -18 15 -26 15 -7 0 -18 9 -24
21 -7 11 -19 28 -29 37 -19 20 -85 52 -105 52 -8 0 -29 18 -46 40 -17 22 -40
40 -50 40 -10 0 -22 5 -25 10 -3 6 -13 10 -21 10 -8 0 -26 12 -40 27 -14 15
-34 27 -46 28 -20 2 -42 23 -51 49 -2 6 -8 8 -12 3 -5 -4 -3 -13 3 -19 20 -20
13 -28 -23 -25 -20 1 -35 7 -35 15 0 6 -9 12 -19 12 -11 0 -21 7 -23 16 -3 19
-49 28 -120 24 -7 -1 -25 2 -41 6 -22 5 -26 3 -22 -9 4 -8 0 -17 -9 -20 -9 -4
-16 3 -21 21 -6 23 -8 24 -16 10 -6 -12 -19 -16 -37 -14 -15 2 -21 1 -14 -1 6
-2 12 -9 12 -14 0 -10 -40 -2 -50 10 -13 16 -71 41 -82 35 -11 -7 -30 -9 -99
-12 -26 -2 -39 -8 -48 -26 -10 -18 -27 -26 -83 -36 -59 -12 -73 -18 -88 -42
-9 -15 -20 -25 -23 -21 -4 3 -15 -1 -24 -9 -10 -9 -35 -21 -55 -29 -21 -7 -60
-36 -87 -63 -27 -28 -63 -64 -80 -80 -17 -16 -31 -33 -31 -38 0 -16 -35 -46
-62 -53 -20 -5 -31 -18 -44 -52 -13 -32 -29 -52 -58 -71 -22 -14 -47 -31 -54
-39 -7 -7 -17 -13 -21 -13 -4 0 -8 -6 -8 -12 -2 -26 -29 -85 -68 -148 -51 -81
-116 -223 -120 -264 -2 -17 -9 -56 -16 -86 -19 -87 -12 -508 10 -549 6 -11 9
-67 8 -130 -2 -61 0 -112 4 -113 4 -2 9 -29 12 -61 4 -31 8 -61 12 -66 3 -5 6
-29 6 -53 1 -25 9 -51 19 -63 29 -33 33 -125 11 -270 -43 -286 -83 -417 -161
-530 -43 -62 -69 -85 -94 -85 -33 0 -113 -37 -120 -56 -3 -9 -6 -28 -6 -43 0
-20 -11 -36 -40 -60 -22 -18 -51 -54 -65 -80 -13 -27 -30 -55 -38 -62 -29 -30
-206 -373 -207 -400 0 -9 -25 -67 -56 -130 -31 -63 -65 -136 -75 -164 -24 -60
-28 -72 -67 -155 l-30 -65 -11 29 c-6 15 -16 80 -21 143 -7 84 -16 132 -35
180 -30 74 -56 162 -61 208 -9 67 -23 152 -33 190 -27 107 -32 152 -30 310 2
126 6 176 17 194 13 22 13 41 0 150 -2 18 -12 37 -21 43 -9 5 -17 17 -17 26 0
9 -10 37 -21 62 -15 33 -21 70 -23 135 -2 58 -9 101 -19 121 -27 53 -22 250
10 359 30 103 28 137 -12 245 -8 19 -16 52 -20 73 -3 21 -14 43 -25 50 -11 6
-20 20 -20 29 0 25 -18 100 -46 193 -13 44 -24 96 -23 115 1 19 0 70 -1 113
-1 70 -5 83 -35 129 -38 57 -41 68 -50 180 -4 42 -13 85 -20 95 -8 10 -15 32
-15 50 0 17 -5 35 -11 38 -6 5 -8 22 -4 46 4 22 3 45 -3 52 -5 7 -12 26 -15
42 -13 68 -30 131 -40 143 -10 13 -12 21 -26 129 -12 94 -21 125 -42 143 -12
9 -22 40 -29 84 -6 38 -15 77 -20 87 -12 22 -13 116 -1 123 5 3 12 22 15 41 6
29 1 49 -24 99 -27 57 -31 74 -31 157 -1 54 -9 129 -20 174 -25 106 -39 206
-39 280 0 33 -7 80 -16 104 -10 30 -12 52 -6 70 11 33 0 134 -17 155 -9 11
-10 20 -3 29 5 6 13 38 17 70 l7 57 -921 0 -921 0 0 -6250z m6825 -596 c66
-36 139 -77 162 -90 l43 -25 -20 -52 c-10 -29 -33 -99 -51 -157 -35 -114 -74
-212 -146 -361 l-46 -96 -62 -12 c-34 -6 -98 -22 -141 -36 -63 -20 -105 -26
-209 -29 -120 -4 -184 -15 -250 -45 -162 -73 -181 -80 -271 -85 l-92 -6 -14
44 -15 44 46 39 c25 21 84 64 131 95 47 31 112 79 145 107 66 56 133 91 210
110 28 7 62 24 77 39 31 29 88 166 88 210 0 23 22 51 120 148 114 112 150 162
150 205 0 11 6 19 13 19 6 0 66 -30 132 -66z m620 -2294 c4 -6 32 -26 63 -46
31 -20 107 -84 167 -144 61 -59 153 -142 205 -185 341 -274 483 -390 539 -439
36 -31 83 -62 104 -68 25 -8 69 -39 118 -84 147 -135 245 -173 473 -181 l138
-6 -6 -31 c-3 -17 -12 -67 -20 -111 -9 -44 -16 -111 -16 -150 0 -69 -14 -115
-36 -122 -6 -2 -14 10 -17 26 -5 22 -14 32 -32 37 -29 7 -29 7 -11 59 8 22 17
56 20 75 3 19 -4 5 -17 -33 -13 -37 -36 -80 -51 -96 -33 -34 -75 -48 -88 -29
-6 10 -10 10 -17 -2 -15 -23 -23 -6 -11 25 15 38 5 43 -11 6 -8 -17 -17 -31
-21 -31 -12 0 -28 66 -31 128 -1 34 -5 62 -8 62 -4 0 -10 10 -14 23 -7 20 -8
19 -12 -10 -5 -36 -12 -40 -32 -20 -10 10 -11 9 -6 -5 6 -15 2 -18 -23 -18
-30 0 -31 2 -37 58 -16 136 -22 154 -17 47 l5 -110 -26 -14 c-32 -17 -57 -2
-57 34 0 18 -4 22 -19 18 -33 -8 -35 18 -5 44 l29 25 -36 -21 c-20 -12 -38
-21 -41 -21 -2 0 -22 16 -43 36 -21 19 -66 55 -99 80 -34 25 -70 52 -80 61
-11 9 -34 24 -52 35 -33 19 -69 70 -127 177 -33 62 -37 67 -97 126 -127 123
-250 189 -444 236 -93 23 -100 26 -126 64 -15 22 -36 48 -47 57 -25 23 -93 26
-122 6 -17 -12 -30 -14 -49 -7 -30 9 -58 13 -247 33 -71 8 -169 21 -216 30
-48 9 -102 16 -120 15 -19 -1 -45 3 -59 8 -14 5 -45 8 -69 5 -55 -6 -52 10 10
53 33 22 71 36 135 49 49 9 112 22 139 28 77 17 241 84 335 139 164 93 194
107 212 98 9 -5 20 -14 23 -19z m1415 -1391 c0 -6 -4 -7 -10 -4 -5 3 -10 11
-10 16 0 6 5 7 10 4 6 -3 10 -11 10 -16z m-20 -25 c6 -14 10 -37 10 -50 0 -22
-3 -24 -22 -18 -31 9 -58 34 -58 52 0 17 28 41 48 42 7 0 17 -12 22 -26z"/>
<path d="M8781 2085 c0 -5 6 -21 14 -35 8 -14 14 -20 14 -15 0 6 -6 21 -14 35
-8 14 -14 21 -14 15z"/>
<path d="M8991 1984 c0 -11 3 -14 6 -6 3 7 2 16 -1 19 -3 4 -6 -2 -5 -13z"/>
<path d="M8973 1931 c-9 -24 -8 -29 3 -24 8 3 14 16 14 29 0 31 -3 30 -17 -5z"/>
<path d="M8971 1874 c0 -11 3 -14 6 -6 3 7 2 16 -1 19 -3 4 -6 -2 -5 -13z"/>
<path d="M6305 9380 c-8 -13 5 -13 25 0 13 8 13 10 -2 10 -9 0 -20 -4 -23 -10z"/>
</g>
</svg>
